# 3ds Max Wavefront OBJ Exporter v0.97b - (c)2007 guruware
# File Created: 24.05.2017 17:09:19

mtllib Fryer.mtl

#
# object Box001
#

v  -35.9208 0.0000 59.5082
v  -35.9208 0.0000 -18.1967
v  32.6421 0.0000 -18.1967
v  32.6421 0.0000 59.5082
v  32.6421 56.7213 59.5082
v  -35.9208 56.7213 59.5082
v  32.6421 56.7213 -18.1967
v  -35.9208 56.7213 -18.1967
v  27.2268 56.7213 54.3347
v  -30.5055 56.7213 54.3347
v  27.2268 56.7213 -13.0233
v  -30.5055 56.7213 -13.0233
v  27.2268 8.9636 54.3347
v  -30.5055 8.9636 54.3347
v  27.2268 8.9636 -13.0233
v  -30.5055 8.9636 -13.0233
# 16 vertices

vn -0.5774 -0.5774 0.5774
vn -0.5774 -0.5774 -0.5774
vn 0.5774 -0.5774 -0.5774
vn 0.5774 -0.5774 0.5774
vn 0.5774 0.5774 0.5774
vn -0.5774 0.5774 0.5774
vn 0.5774 0.5774 -0.5774
vn -0.5774 0.5774 -0.5774
vn -0.3015 0.9045 -0.3015
vn 0.3015 0.9045 -0.3015
vn -0.3015 0.9045 0.3015
vn 0.3015 0.9045 0.3015
# 12 vertex normals

vt 1.0000 0.0000 0.0000
vt 1.0000 1.0000 0.0000
vt 0.0000 1.0000 0.0000
vt 0.0000 0.0000 0.0000
# 4 texture coords

o Box001
g Box001
usemtl Material__1
s 2
f 1/1/1 2/2/2 3/3/3 4/4/4 
s 8
f 1/4/1 4/1/4 5/2/5 6/3/6 
s 16
f 4/4/4 3/1/3 7/2/7 5/3/5 
s 32
f 3/4/3 2/1/2 8/2/8 7/3/7 
s 64
f 2/4/2 1/1/1 6/2/6 8/3/8 
s off
f 5/2/5 9/2/9 10/3/10 6/3/6 
f 7/2/7 11/2/11 9/3/9 5/3/5 
f 8/2/8 12/2/12 11/3/11 7/3/7 
f 6/2/6 10/2/10 12/3/12 8/3/8 
f 10/3/10 9/2/9 13/2/8 14/3/7 
f 9/3/9 11/2/11 15/2/6 13/3/8 
f 11/3/11 12/2/12 16/2/5 15/3/6 
f 12/3/12 10/2/10 14/2/7 16/3/5 
f 16/2/5 14/3/7 13/2/8 15/2/6 
# 14 polygons

#
# object Box002
#

v  -28.6098 37.3899 36.3532
v  -28.6098 37.3899 -6.4911
v  -3.3139 37.3899 -6.4911
v  -3.3139 37.3899 36.3532
v  -3.3139 60.0128 36.3532
v  -28.6098 60.0128 36.3532
v  -3.3139 60.0128 -6.4911
v  -28.6098 60.0128 -6.4911
v  -5.8442 60.0128 33.6584
v  -26.0796 60.0128 33.6584
v  -5.8442 60.0128 -3.7963
v  -26.0796 60.0128 -3.7963
v  -5.8442 40.7078 33.6584
v  -26.0796 40.7078 33.6584
v  -5.8442 40.7078 -3.7963
v  -26.0796 40.7078 -3.7963
v  -18.3517 53.0013 -6.4911
v  -13.5721 53.0013 -6.4911
v  -13.5721 57.2758 -6.4911
v  -18.3517 57.2758 -6.4911
v  -18.3517 57.4320 -13.5900
v  -13.5721 57.4320 -13.5900
v  -13.5721 61.7065 -13.5900
v  -18.3517 61.7065 -13.5900
v  -18.3517 57.8186 -19.7952
v  -13.5721 57.8186 -19.7952
v  -13.5721 61.3200 -22.2470
v  -18.3517 61.3200 -22.2470
v  -18.3517 39.8423 -25.8669
v  -13.5721 39.8423 -25.8669
v  -13.5721 43.3438 -28.3186
v  -18.3517 43.3438 -28.3186
# 32 vertices

vn -0.5774 -0.5774 0.5774
vn -0.5774 -0.5774 -0.5774
vn 0.5774 -0.5774 -0.5774
vn 0.5774 -0.5774 0.5774
vn 0.5774 0.5774 0.5774
vn -0.5774 0.5774 0.5774
vn 0.5774 0.5774 -0.5774
vn -0.5774 0.5774 -0.5774
vn -0.3015 0.9045 -0.3015
vn 0.3015 0.9045 -0.3015
vn -0.3015 0.9045 0.3015
vn 0.3015 0.9045 0.3015
vn -0.1749 -0.2301 -0.9573
vn 0.1749 -0.2301 -0.9573
vn 0.4605 0.2883 -0.8395
vn -0.4605 0.2883 -0.8395
vn -0.7667 -0.6114 -0.1959
vn 0.7667 -0.6114 -0.1959
vn 0.6460 0.7383 0.1938
vn -0.6460 0.7383 0.1938
vn -0.8723 -0.4059 0.2726
vn 0.8723 -0.4059 0.2726
vn 0.5994 0.6397 -0.4811
vn -0.5994 0.6397 -0.4811
vn -0.5511 -0.8260 0.1186
vn 0.5511 -0.8260 0.1186
vn 0.6182 -0.1117 -0.7780
vn -0.6182 -0.1117 -0.7780
# 28 vertex normals

vt 1.0000 0.0000 0.0000
vt 1.0000 1.0000 0.0000
vt 0.0000 1.0000 0.0000
vt 0.0000 0.0000 0.0000
# 4 texture coords

o Box002
g Box002
usemtl Material__2
s 2
f 17/5/13 18/6/14 19/7/15 20/8/16 
s 8
f 17/8/13 20/5/16 21/6/17 22/7/18 
s 16
f 20/8/16 19/5/15 23/6/19 21/7/17 
s 64
f 18/8/14 17/5/13 22/6/18 24/7/20 
s off
f 22/7/18 21/6/17 25/6/21 26/7/22 
f 21/7/17 23/6/19 27/6/23 25/7/21 
f 23/7/19 24/6/20 28/6/24 27/7/23 
f 24/7/20 22/6/18 26/6/22 28/7/24 
f 26/7/22 25/6/21 29/6/20 30/7/19 
f 25/7/21 27/6/23 31/6/18 29/7/20 
f 27/7/23 28/6/24 32/6/17 31/7/18 
f 28/7/24 26/6/22 30/6/19 32/7/17 
f 32/6/17 30/7/19 29/6/20 31/6/18 
f 19/7/15 18/6/14 33/6/25 34/7/26 
f 24/6/20 23/7/19 35/7/27 36/6/28 
f 23/6/19 19/5/15 34/5/26 35/6/27 
f 18/8/14 24/7/20 36/7/28 33/8/25 
f 34/7/26 33/6/25 37/6/29 38/7/30 
f 36/6/28 35/7/27 39/7/31 40/6/32 
f 35/6/27 34/5/26 38/5/30 39/6/31 
f 33/8/25 36/7/28 40/7/32 37/8/29 
f 38/7/30 37/6/29 41/6/33 42/7/34 
f 40/6/32 39/7/31 43/7/35 44/6/36 
f 39/6/31 38/5/30 42/5/34 43/6/35 
f 37/8/29 40/7/32 44/7/36 41/8/33 
f 42/7/34 41/6/33 45/6/37 46/7/38 
f 44/6/36 43/7/35 47/7/39 48/6/40 
f 43/6/35 42/5/34 46/5/38 47/6/39 
f 41/8/33 44/7/36 48/7/40 45/8/37 
f 48/6/40 47/7/39 46/7/38 45/6/37 
# 30 polygons

#
# object Box003
#

v  -0.2041 37.3899 36.3532
v  -0.2041 37.3899 -6.4911
v  25.0918 37.3899 -6.4911
v  25.0918 37.3899 36.3532
v  25.0918 60.0128 36.3532
v  -0.2041 60.0128 36.3532
v  25.0918 60.0128 -6.4911
v  -0.2041 60.0128 -6.4911
v  22.5615 60.0128 33.6584
v  2.3261 60.0128 33.6584
v  22.5615 60.0128 -3.7963
v  2.3261 60.0128 -3.7963
v  22.5615 40.7078 33.6584
v  2.3261 40.7078 33.6584
v  22.5615 40.7078 -3.7963
v  2.3261 40.7078 -3.7963
v  10.0540 53.0013 -6.4911
v  14.8336 53.0013 -6.4911
v  14.8336 57.2758 -6.4911
v  10.0540 57.2758 -6.4911
v  10.0540 57.4320 -13.5900
v  14.8336 57.4320 -13.5900
v  14.8336 61.7065 -13.5900
v  10.0540 61.7065 -13.5900
v  10.0540 57.8186 -19.7952
v  14.8336 57.8186 -19.7952
v  14.8336 61.3200 -22.2470
v  10.0540 61.3200 -22.2470
v  10.0540 39.8423 -25.8669
v  14.8336 39.8423 -25.8669
v  14.8336 43.3438 -28.3186
v  10.0540 43.3438 -28.3186
# 32 vertices

vn -0.5774 -0.5774 0.5774
vn -0.5774 -0.5774 -0.5774
vn 0.5774 -0.5774 -0.5774
vn 0.5774 -0.5774 0.5774
vn 0.5774 0.5774 0.5774
vn -0.5774 0.5774 0.5774
vn 0.5774 0.5774 -0.5774
vn -0.5774 0.5774 -0.5774
vn -0.3015 0.9045 -0.3015
vn 0.3015 0.9045 -0.3015
vn -0.3015 0.9045 0.3015
vn 0.3015 0.9045 0.3015
vn -0.1749 -0.2301 -0.9573
vn 0.1749 -0.2301 -0.9573
vn 0.4605 0.2883 -0.8395
vn -0.4605 0.2883 -0.8395
vn -0.7667 -0.6114 -0.1959
vn 0.7667 -0.6114 -0.1959
vn 0.6460 0.7383 0.1938
vn -0.6460 0.7383 0.1938
vn -0.8723 -0.4059 0.2726
vn 0.8723 -0.4059 0.2726
vn 0.5994 0.6397 -0.4811
vn -0.5994 0.6397 -0.4811
vn -0.5511 -0.8260 0.1186
vn 0.5511 -0.8260 0.1186
vn 0.6182 -0.1117 -0.7780
vn -0.6182 -0.1117 -0.7780
# 28 vertex normals

vt 1.0000 0.0000 0.0000
vt 1.0000 1.0000 0.0000
vt 0.0000 1.0000 0.0000
vt 0.0000 0.0000 0.0000
# 4 texture coords

o Box003
g Box003
usemtl Material__2
s 2
f 49/9/41 50/10/42 51/11/43 52/12/44 
s 8
f 49/12/41 52/9/44 53/10/45 54/11/46 
s 16
f 52/12/44 51/9/43 55/10/47 53/11/45 
s 64
f 50/12/42 49/9/41 54/10/46 56/11/48 
s off
f 54/11/46 53/10/45 57/10/49 58/11/50 
f 53/11/45 55/10/47 59/10/51 57/11/49 
f 55/11/47 56/10/48 60/10/52 59/11/51 
f 56/11/48 54/10/46 58/10/50 60/11/52 
f 58/11/50 57/10/49 61/10/48 62/11/47 
f 57/11/49 59/10/51 63/10/46 61/11/48 
f 59/11/51 60/10/52 64/10/45 63/11/46 
f 60/11/52 58/10/50 62/10/47 64/11/45 
f 64/10/45 62/11/47 61/10/48 63/10/46 
f 51/11/43 50/10/42 65/10/53 66/11/54 
f 56/10/48 55/11/47 67/11/55 68/10/56 
f 55/10/47 51/9/43 66/9/54 67/10/55 
f 50/12/42 56/11/48 68/11/56 65/12/53 
f 66/11/54 65/10/53 69/10/57 70/11/58 
f 68/10/56 67/11/55 71/11/59 72/10/60 
f 67/10/55 66/9/54 70/9/58 71/10/59 
f 65/12/53 68/11/56 72/11/60 69/12/57 
f 70/11/58 69/10/57 73/10/61 74/11/62 
f 72/10/60 71/11/59 75/11/63 76/10/64 
f 71/10/59 70/9/58 74/9/62 75/10/63 
f 69/12/57 72/11/60 76/11/64 73/12/61 
f 74/11/62 73/10/61 77/10/65 78/11/66 
f 76/10/64 75/11/63 79/11/67 80/10/68 
f 75/10/63 74/9/62 78/9/66 79/10/67 
f 73/12/61 76/11/64 80/11/68 77/12/65 
f 80/10/68 79/11/67 78/11/66 77/10/65 
# 30 polygons

